<svg width="30" height="30" viewBox="0 0 30 30" fill="none" xmlns="http://www.w3.org/2000/svg">
<path d="M0.836215 16.6835C0.58993 15.9121 1.0607 15.1393 1.8877 14.9573C4.10184 14.4703 6.343 13.9774 10.2953 13.3882C14.2224 12.8029 27.5493 10.2812 27.5493 10.2812C28.3972 10.1794 29.2144 10.7341 29.3744 11.5201C29.5345 12.3062 28.9768 13.0258 28.1289 13.1276C28.1289 13.1276 14.8377 15.6453 10.968 16.2221C7.12348 16.7952 4.96504 17.2701 2.7796 17.7509C1.95259 17.9328 1.0825 17.4549 0.836215 16.6835Z" fill="black"/>
<path d="M26.2029 3.46787C26.8793 2.99506 27.8114 3.15932 28.2849 3.83475C28.7584 4.51019 28.5939 5.44104 27.9175 5.91385C27.5411 6.17698 27.1637 6.43524 25.4903 7.87461C23.8123 9.31791 20.9464 11.8476 17.0793 15.5645C13.2054 19.2879 7.30896 24.7732 2.55673 29.5605C1.97547 30.146 1.0289 30.1502 0.442521 29.5697C-0.14386 28.9893 -0.14802 28.0441 0.433236 27.4585C5.17736 22.6794 11.1012 17.1663 15.0059 13.4133C18.9174 9.65377 21.8246 7.087 23.539 5.6124C25.2579 4.13388 25.7173 3.8073 26.2029 3.46787Z" fill="black"/>
</svg>
