<svg width="30" height="30" viewBox="0 0 30 30" fill="none" xmlns="http://www.w3.org/2000/svg">
<path d="M20.35 8.73589C20.2642 8.64378 20.1607 8.5699 20.0457 8.51866C19.9307 8.46742 19.8065 8.43987 19.6807 8.43765C19.5548 8.43543 19.4297 8.45858 19.313 8.50573C19.1963 8.55288 19.0902 8.62307 19.0012 8.71209C18.9122 8.80111 18.842 8.90715 18.7948 9.02389C18.7477 9.14062 18.7245 9.26566 18.7268 9.39154C18.729 9.51742 18.7565 9.64156 18.8078 9.75656C18.859 9.87156 18.9329 9.97506 19.025 10.0609L23.05 14.0859H4.6875C4.43886 14.0859 4.2004 14.1847 4.02459 14.3605C3.84877 14.5363 3.75 14.7747 3.75 15.0234C3.75 15.272 3.84877 15.5105 4.02459 15.6863C4.2004 15.8621 4.43886 15.9609 4.6875 15.9609H23.05L19.025 19.9859C18.8594 20.1636 18.7692 20.3987 18.7735 20.6415C18.7778 20.8844 18.8762 21.1161 19.048 21.2879C19.2197 21.4597 19.4515 21.5581 19.6943 21.5624C19.9372 21.5666 20.1723 21.4765 20.35 21.3109L25.975 15.6859C26.1506 15.5101 26.2492 15.2718 26.2492 15.0234C26.2492 14.7749 26.1506 14.5367 25.975 14.3609L20.35 8.73589Z" fill="black"/>
</svg>
